<svg width="28" height="28" viewBox="0 0 28 28" fill="none" xmlns="http://www.w3.org/2000/svg">
<g clip-path="url(#clip0_465_39631)">
<path d="M12.3333 8.16667C12.3333 7.72464 12.5089 7.30072 12.8215 6.98816C13.1341 6.67559 13.558 6.5 14 6.5C14.442 6.5 14.866 6.67559 15.1785 6.98816C15.4911 7.30072 15.6667 7.72464 15.6667 8.16667C16.6237 8.61919 17.4395 9.32361 18.0267 10.2044C18.6139 11.0852 18.9504 12.1092 19 13.1667V15.6667C19.0627 16.1848 19.2462 16.6809 19.5357 17.1151C19.8252 17.5493 20.2126 17.9095 20.6667 18.1667H7.33334C7.78746 17.9095 8.17485 17.5493 8.46433 17.1151C8.75381 16.6809 8.9373 16.1848 9.00001 15.6667V13.1667C9.04964 12.1092 9.38609 11.0852 9.9733 10.2044C10.5605 9.32361 11.3763 8.61919 12.3333 8.16667Z" stroke="#222222" stroke-width="1.5" stroke-linecap="round" stroke-linejoin="round"/>
<path d="M11.5 18.1667V19C11.5 19.663 11.7634 20.2989 12.2322 20.7678C12.7011 21.2366 13.337 21.5 14 21.5C14.663 21.5 15.2989 21.2366 15.7678 20.7678C16.2366 20.2989 16.5 19.663 16.5 19V18.1667" stroke="#222222" stroke-width="1.5" stroke-linecap="round" stroke-linejoin="round"/>
</g>
<defs>
<clipPath id="clip0_465_39631">
<rect width="20" height="20" fill="white" transform="translate(4 4)"/>
</clipPath>
</defs>
</svg>
