<svg width="16" height="16" viewBox="0 0 16 16" fill="none" xmlns="http://www.w3.org/2000/svg">
<path d="M8.00016 5.50025C7.5057 5.50025 7.02235 5.64687 6.61123 5.92158C6.20011 6.19628 5.87968 6.58673 5.69046 7.04354C5.50124 7.50036 5.45173 8.00303 5.54819 8.48798C5.64466 8.97293 5.88276 9.41839 6.23239 9.76802C6.58202 10.1176 7.02748 10.3558 7.51243 10.4522C7.99738 10.5487 8.50005 10.4992 8.95686 10.31C9.41368 10.1207 9.80413 9.8003 10.0788 9.38918C10.3535 8.97805 10.5002 8.4947 10.5002 8.00025C10.5002 7.33721 10.2368 6.70133 9.76792 6.23248C9.29908 5.76364 8.6632 5.50025 8.00016 5.50025ZM8.00016 9.50025C7.70348 9.50025 7.41347 9.41228 7.1668 9.24746C6.92013 9.08263 6.72787 8.84837 6.61434 8.57428C6.5008 8.30019 6.4711 7.99859 6.52898 7.70762C6.58686 7.41664 6.72972 7.14937 6.9395 6.93959C7.14927 6.72981 7.41655 6.58695 7.70752 6.52907C7.99849 6.4712 8.30009 6.5009 8.57418 6.61443C8.84827 6.72796 9.08254 6.92022 9.24736 7.1669C9.41218 7.41357 9.50016 7.70358 9.50016 8.00025C9.50016 8.39808 9.34212 8.77961 9.06082 9.06091C8.77951 9.34222 8.39798 9.50025 8.00016 9.50025ZM12.607 9.9465C12.3922 10.4544 12.0949 10.9232 11.727 11.334C11.638 11.4304 11.5146 11.4879 11.3835 11.4941C11.2524 11.5003 11.1241 11.4547 11.0264 11.3672C10.9286 11.2797 10.8691 11.1572 10.8608 11.0262C10.8525 10.8953 10.8961 10.7663 10.982 10.6671C11.6386 9.93409 12.0016 8.98462 12.0016 8.00056C12.0016 7.01651 11.6386 6.06704 10.982 5.334C10.937 5.28529 10.9021 5.22811 10.8794 5.16578C10.8567 5.10346 10.8467 5.03724 10.8498 4.97099C10.8529 4.90473 10.8692 4.83976 10.8977 4.77986C10.9262 4.71996 10.9663 4.66633 11.0157 4.62209C11.0652 4.57786 11.1229 4.54389 11.1856 4.52218C11.2483 4.50047 11.3146 4.49145 11.3808 4.49564C11.447 4.49983 11.5117 4.51715 11.5712 4.54659C11.6306 4.57603 11.6836 4.61701 11.727 4.66713C12.3584 5.37359 12.7762 6.24474 12.932 7.1793C13.0878 8.11387 12.9751 9.07345 12.607 9.9465ZM4.31266 6.44338C4.01764 7.14173 3.92716 7.90955 4.05176 8.65735C4.17636 9.40515 4.5109 10.1022 5.01641 10.6671C5.10237 10.7663 5.1459 10.8953 5.1376 11.0262C5.12931 11.1572 5.06986 11.2797 4.97208 11.3672C4.8743 11.4547 4.74603 11.5003 4.61495 11.4941C4.48386 11.4879 4.36047 11.4304 4.27141 11.334C3.45052 10.4177 2.9966 9.23077 2.9966 8.00056C2.9966 6.77036 3.45052 5.5834 4.27141 4.66713C4.35984 4.56808 4.48399 4.50823 4.61656 4.50073C4.74912 4.49323 4.87924 4.53869 4.97828 4.62713C5.07732 4.71556 5.13718 4.83972 5.14468 4.97228C5.15218 5.10484 5.10671 5.23496 5.01828 5.334C4.72328 5.66218 4.48483 6.03707 4.31266 6.44338ZM15.5002 8.00025C15.5032 9.96383 14.7333 11.8497 13.357 13.2503C13.3115 13.2989 13.2567 13.338 13.1958 13.3652C13.135 13.3924 13.0693 13.4072 13.0026 13.4086C12.936 13.41 12.8697 13.3981 12.8078 13.3736C12.7458 13.349 12.6894 13.3124 12.6418 13.2657C12.5942 13.219 12.5564 13.1633 12.5307 13.1018C12.5049 13.0403 12.4917 12.9743 12.4919 12.9076C12.492 12.841 12.5055 12.775 12.5315 12.7137C12.5575 12.6523 12.5955 12.5967 12.6433 12.5503C13.835 11.3361 14.5026 9.70277 14.5026 8.0015C14.5026 6.30023 13.835 4.6669 12.6433 3.45275C12.5501 3.3581 12.4984 3.23032 12.4994 3.09752C12.5005 2.96472 12.5543 2.83778 12.6489 2.74463C12.7436 2.65147 12.8713 2.59973 13.0041 2.60078C13.1369 2.60184 13.2639 2.6556 13.357 2.75025C14.7333 4.15077 15.5032 6.03667 15.5002 8.00025ZM3.35703 12.549C3.40308 12.5959 3.43944 12.6513 3.46404 12.7123C3.48865 12.7732 3.50101 12.8383 3.50043 12.904C3.49985 12.9697 3.48634 13.0347 3.46066 13.0952C3.43498 13.1556 3.39765 13.2105 3.35078 13.2565C3.30392 13.3025 3.24844 13.3389 3.18752 13.3635C3.1266 13.3881 3.06143 13.4005 2.99574 13.3999C2.93004 13.3993 2.8651 13.3858 2.80462 13.3601C2.74415 13.3345 2.68933 13.2971 2.64328 13.2503C1.26715 11.8493 0.496094 9.96403 0.496094 8.00025C0.496094 6.03647 1.26715 4.15121 2.64328 2.75025C2.68881 2.70157 2.74362 2.66248 2.80448 2.63529C2.86534 2.6081 2.93102 2.59335 2.99766 2.59191C3.06431 2.59048 3.13056 2.60238 3.19254 2.62692C3.25451 2.65146 3.31096 2.68815 3.35855 2.73482C3.40614 2.7815 3.44391 2.83721 3.46966 2.8987C3.4954 2.96019 3.50859 3.0262 3.50845 3.09286C3.50831 3.15951 3.49484 3.22547 3.46883 3.28685C3.44283 3.34822 3.40482 3.40378 3.35703 3.45025C2.16532 4.6644 1.49768 6.29773 1.49768 7.999C1.49768 9.70027 2.16532 11.3336 3.35703 12.5478V12.549Z" fill="#1C1C1C"/>
</svg>
