<svg width="16" height="16" viewBox="0 0 16 16" fill="none" xmlns="http://www.w3.org/2000/svg">
<path d="M13 9.00028H14C14.1326 9.00028 14.2598 8.9476 14.3536 8.85383C14.4473 8.76006 14.5 8.63289 14.5 8.50028C14.5 8.36767 14.4473 8.24049 14.3536 8.14672C14.2598 8.05296 14.1326 8.00028 14 8.00028H13V7.00028H14C14.1326 7.00028 14.2598 6.9476 14.3536 6.85383C14.4473 6.76006 14.5 6.63289 14.5 6.50028C14.5 6.36767 14.4473 6.24049 14.3536 6.14672C14.2598 6.05296 14.1326 6.00028 14 6.00028H12.975C12.8646 4.90287 12.3933 3.87308 11.635 3.07215L12.8538 1.85403C12.9002 1.80757 12.9371 1.75242 12.9622 1.69173C12.9873 1.63103 13.0003 1.56598 13.0003 1.50028C13.0003 1.43458 12.9873 1.36953 12.9622 1.30883C12.9371 1.24813 12.9002 1.19298 12.8538 1.14653C12.8073 1.10007 12.7521 1.06322 12.6914 1.03808C12.6308 1.01294 12.5657 1 12.5 1C12.4343 1 12.3692 1.01294 12.3086 1.03808C12.2479 1.06322 12.1927 1.10007 12.1462 1.14653L10.8781 2.41528C10.0365 1.81992 9.03093 1.50021 8 1.50021C6.96907 1.50021 5.96351 1.81992 5.12187 2.41528L3.85375 1.14653C3.75993 1.05271 3.63268 1 3.5 1C3.36732 1 3.24007 1.05271 3.14625 1.14653C3.05243 1.24035 2.99972 1.3676 2.99972 1.50028C2.99972 1.63296 3.05243 1.76021 3.14625 1.85403L4.365 3.07215C3.6067 3.87308 3.13544 4.90287 3.025 6.00028H2C1.86739 6.00028 1.74021 6.05296 1.64645 6.14672C1.55268 6.24049 1.5 6.36767 1.5 6.50028C1.5 6.63289 1.55268 6.76006 1.64645 6.85383C1.74021 6.9476 1.86739 7.00028 2 7.00028H3V8.00028H2C1.86739 8.00028 1.74021 8.05296 1.64645 8.14672C1.55268 8.24049 1.5 8.36767 1.5 8.50028C1.5 8.63289 1.55268 8.76006 1.64645 8.85383C1.74021 8.9476 1.86739 9.00028 2 9.00028H3V9.50028C3 9.66903 3.00875 9.8359 3.025 10.0003H2C1.86739 10.0003 1.74021 10.053 1.64645 10.1467C1.55268 10.2405 1.5 10.3677 1.5 10.5003C1.5 10.6329 1.55268 10.7601 1.64645 10.8538C1.74021 10.9476 1.86739 11.0003 2 11.0003H3.23C3.54904 12.0155 4.18366 12.9024 5.04155 13.5321C5.89944 14.1617 6.93584 14.5012 8 14.5012C9.06416 14.5012 10.1006 14.1617 10.9584 13.5321C11.8163 12.9024 12.451 12.0155 12.77 11.0003H14C14.1326 11.0003 14.2598 10.9476 14.3536 10.8538C14.4473 10.7601 14.5 10.6329 14.5 10.5003C14.5 10.3677 14.4473 10.2405 14.3536 10.1467C14.2598 10.053 14.1326 10.0003 14 10.0003H12.975C12.9913 9.8359 13 9.66903 13 9.50028V9.00028ZM8 2.50028C8.97381 2.50149 9.91381 2.85752 10.6441 3.50174C11.3744 4.14596 11.8448 5.03422 11.9675 6.00028H4.03C4.15271 5.03379 4.62356 4.14519 5.35435 3.50092C6.08515 2.85664 7.02576 2.50088 8 2.50028ZM8.5 13.4678V8.50028C8.5 8.36767 8.44732 8.24049 8.35355 8.14672C8.25979 8.05296 8.13261 8.00028 8 8.00028C7.86739 8.00028 7.74021 8.05296 7.64645 8.14672C7.55268 8.24049 7.5 8.36767 7.5 8.50028V13.4678C6.53394 13.3451 5.64568 12.8746 5.00146 12.1444C4.35724 11.4141 4.00121 10.4741 4 9.50028V7.00028H12V9.50028C11.9988 10.4741 11.6428 11.4141 10.9985 12.1444C10.3543 12.8746 9.46606 13.3451 8.5 13.4678Z" fill="#1C1C1C"/>
</svg>
