<svg width="20" height="20" viewBox="0 0 20 20" fill="none" xmlns="http://www.w3.org/2000/svg">
<g clip-path="url(#clip0_465_39637)">
<path d="M3.33334 5C3.33334 4.55797 3.50894 4.13405 3.8215 3.82149C4.13406 3.50893 4.55798 3.33333 5.00001 3.33333H15C15.442 3.33333 15.866 3.50893 16.1785 3.82149C16.4911 4.13405 16.6667 4.55797 16.6667 5V15C16.6667 15.442 16.4911 15.866 16.1785 16.1785C15.866 16.4911 15.442 16.6667 15 16.6667H5.00001C4.55798 16.6667 4.13406 16.4911 3.8215 16.1785C3.50894 15.866 3.33334 15.442 3.33334 15V5Z" stroke="#222222" stroke-width="1.5" stroke-linecap="round" stroke-linejoin="round"/>
<path d="M12.5 3.33333V16.6667" stroke="#222222" stroke-width="1.5" stroke-linecap="round" stroke-linejoin="round"/>
</g>
<defs>
<clipPath id="clip0_465_39637">
<rect width="20" height="20" fill="white"/>
</clipPath>
</defs>
</svg>
