<svg width="24" height="24" viewBox="0 0 24 24" fill="#A5AAB0" xmlns="http://www.w3.org/2000/svg">
<g clip-path="url(#clip0_465_39580)">
<path d="M9 3C9.53043 3 10.0391 3.21071 10.4142 3.58579C10.7893 3.96086 11 4.46957 11 5V11C11 11.5304 10.7893 12.0391 10.4142 12.4142C10.0391 12.7893 9.53043 13 9 13H5C4.46957 13 3.96086 12.7893 3.58579 12.4142C3.21071 12.0391 3 11.5304 3 11V5C3 4.46957 3.21071 3.96086 3.58579 3.58579C3.96086 3.21071 4.46957 3 5 3H9ZM9 15C9.53043 15 10.0391 15.2107 10.4142 15.5858C10.7893 15.9609 11 16.4696 11 17V19C11 19.5304 10.7893 20.0391 10.4142 20.4142C10.0391 20.7893 9.53043 21 9 21H5C4.46957 21 3.96086 20.7893 3.58579 20.4142C3.21071 20.0391 3 19.5304 3 19V17C3 16.4696 3.21071 15.9609 3.58579 15.5858C3.96086 15.2107 4.46957 15 5 15H9ZM19 11C19.5304 11 20.0391 11.2107 20.4142 11.5858C20.7893 11.9609 21 12.4696 21 13V19C21 19.5304 20.7893 20.0391 20.4142 20.4142C20.0391 20.7893 19.5304 21 19 21H15C14.4696 21 13.9609 20.7893 13.5858 20.4142C13.2107 20.0391 13 19.5304 13 19V13C13 12.4696 13.2107 11.9609 13.5858 11.5858C13.9609 11.2107 14.4696 11 15 11H19ZM19 3C19.5304 3 20.0391 3.21071 20.4142 3.58579C20.7893 3.96086 21 4.46957 21 5V7C21 7.53043 20.7893 8.03914 20.4142 8.41421C20.0391 8.78929 19.5304 9 19 9H15C14.4696 9 13.9609 8.78929 13.5858 8.41421C13.2107 8.03914 13 7.53043 13 7V5C13 4.46957 13.2107 3.96086 13.5858 3.58579C13.9609 3.21071 14.4696 3 15 3H19Z" fill="#A5AAB0
"/>
</g>
<defs>
<clipPath id="clip0_465_39580">
<rect width="24" height="24" fill="white"/>
</clipPath>
</defs>
</svg>
