<svg width="20" height="20" viewBox="0 0 20 20" fill="none" xmlns="http://www.w3.org/2000/svg">
<g clip-path="url(#clip0_465_39620)">
<path d="M3.33337 5C3.33337 4.55797 3.50897 4.13405 3.82153 3.82149C4.13409 3.50893 4.55801 3.33333 5.00004 3.33333H15C15.4421 3.33333 15.866 3.50893 16.1786 3.82149C16.4911 4.13405 16.6667 4.55797 16.6667 5V15C16.6667 15.442 16.4911 15.866 16.1786 16.1785C15.866 16.4911 15.4421 16.6667 15 16.6667H5.00004C4.55801 16.6667 4.13409 16.4911 3.82153 16.1785C3.50897 15.866 3.33337 15.442 3.33337 15V5Z" stroke="black" stroke-width="1.5" stroke-linecap="round" stroke-linejoin="round"/>
<path d="M7.5 3.33333V16.6667" stroke="black" stroke-width="1.5" stroke-linecap="round" stroke-linejoin="round"/>
</g>
<defs>
<clipPath id="clip0_465_39620">
<rect width="20" height="20" fill="white"/>
</clipPath>
</defs>
</svg>
