<svg width="24" height="24" viewBox="0 0 24 24" fill="none" xmlns="http://www.w3.org/2000/svg">
<circle cx="12" cy="12" r="12" fill="#01187D"/>
<path fill-rule="evenodd" clip-rule="evenodd" d="M10.0029 7.07182C8.16297 7.31227 6.62669 8.7248 6.09985 10.6604C6.02216 10.9461 6.0012 11.2204 6.00018 11.9675C5.99885 12.937 5.99772 12.929 6.26919 13.8307C6.63674 15.0513 7.75206 16.2494 8.94924 16.7095C9.46982 16.9097 10.0229 16.9988 10.7515 17C11.7838 17.0018 12.3934 16.8368 13.1053 16.3631C13.4801 16.1137 13.9864 15.6249 13.9864 15.5125C13.9864 15.4674 13.9006 15.2836 13.7958 15.104C13.6909 14.9245 13.5451 14.6209 13.4718 14.4293C13.1768 13.6584 13.075 13.4414 13.0083 13.4414C12.9803 13.4414 12.8001 13.5944 12.608 13.7814C11.9487 14.4229 11.43 14.665 10.7151 14.665C10.0418 14.665 9.45432 14.3978 8.93128 13.8538C7.96867 12.8524 7.99957 11.1809 8.99993 10.1403C9.50463 9.61528 10.1434 9.34958 10.7845 9.39803C11.5695 9.45732 11.9425 9.61706 12.4031 10.0911C12.9815 10.6862 13.1659 11.1619 13.2134 12.1807C13.2896 13.8175 13.8564 15.0252 14.9603 15.9031C15.3437 16.2081 16.2953 16.723 16.4754 16.723C16.5219 16.723 16.6065 16.7489 16.6632 16.7805C16.8314 16.8741 17.8526 16.9962 17.9298 16.9319C18.0159 16.8602 18.0265 14.7464 17.941 14.6915C17.9104 14.6718 17.6934 14.608 17.4588 14.5497C16.7746 14.3798 16.3337 14.0952 15.963 13.5845C15.6452 13.1466 15.5369 12.7368 15.5378 11.9764C15.5389 11.0724 15.6961 10.6114 16.1719 10.1165C16.5337 9.74009 17.3948 9.3255 17.8146 9.3255C17.9908 9.3255 18.0027 9.2364 17.9851 8.04623L17.9699 7.01726L17.5689 7.03177C16.6604 7.06459 15.6077 7.50393 14.8152 8.18089C14.5799 8.38185 14.3615 8.54643 14.3299 8.54654C14.2983 8.5467 14.2141 8.48146 14.1427 8.40159C13.9499 8.18551 13.4664 7.81324 13.1128 7.60861C12.624 7.32573 11.917 7.10975 11.2707 7.04601C10.6185 6.98172 10.706 6.97994 10.0029 7.07182Z" fill="white"/>
</svg>
