<svg width="128" height="24" viewBox="0 0 128 24" fill="none" xmlns="http://www.w3.org/2000/svg">
<path fill-rule="evenodd" clip-rule="evenodd" d="M7.6865 0.169325C4.1534 0.633204 1.20338 3.35832 0.191737 7.09253C0.0425524 7.64365 0.00230446 8.17298 0.000353663 9.61419C-0.00221318 11.4847 -0.00436941 11.4693 0.516904 13.2089C1.22268 15.5637 3.36435 17.8751 5.66321 18.7628C6.66284 19.1489 7.7248 19.3208 9.12393 19.3231C11.1062 19.3266 12.2768 19.0083 13.6437 18.0945C14.3635 17.6132 15.3357 16.6702 15.3357 16.4534C15.3357 16.3664 15.171 16.0118 14.9697 15.6653C14.7683 15.319 14.4883 14.7333 14.3476 14.3637C13.781 12.8765 13.5855 12.4578 13.4576 12.4578C13.4038 12.4578 13.0578 12.753 12.6888 13.1137C11.4228 14.3514 10.4269 14.8185 9.05401 14.8185C7.76114 14.8185 6.63307 14.303 5.62871 13.2533C3.78028 11.3215 3.83963 8.0968 5.76055 6.08923C6.72968 5.07627 7.95622 4.56368 9.18728 4.65714C10.6946 4.77152 11.411 5.0797 12.2954 5.99416C13.406 7.14243 13.7602 8.05999 13.8513 10.0256C13.9977 13.1834 15.0861 15.5133 17.2059 17.207C17.9421 17.7953 19.7693 18.7888 20.115 18.7888C20.2045 18.7888 20.3668 18.8387 20.4758 18.8997C20.7987 19.0803 22.7597 19.3158 22.9079 19.1918C23.0732 19.0535 23.0936 14.9755 22.9294 14.8695C22.8707 14.8316 22.454 14.7085 22.0034 14.596C20.6897 14.2681 19.8431 13.7191 19.1312 12.7338C18.5209 11.8891 18.3129 11.0984 18.3148 9.63147C18.3169 7.88734 18.6187 6.9981 19.5324 6.04319C20.2272 5.31706 21.8805 4.51721 22.6867 4.51721C23.025 4.51721 23.0478 4.34531 23.014 2.0492L22.9849 0.0640585L22.2148 0.092065C20.4703 0.155375 18.4488 1.00298 16.9271 2.30898C16.4754 2.69668 16.056 3.01419 15.9953 3.01441C15.9346 3.01473 15.7729 2.88886 15.6359 2.73477C15.2656 2.31789 14.3372 1.5997 13.6582 1.20492C12.7197 0.659171 11.3619 0.242507 10.1209 0.119535C8.86858 -0.00450936 9.03666 -0.00794314 7.6865 0.169325Z" fill="#01187D"/>
<path d="M32.5077 9.92105C32.5077 10.7105 32.595 11.4825 32.7697 12.2368C32.9617 12.9737 33.2586 13.6404 33.6602 14.2368C34.0618 14.8333 34.5857 15.3158 35.2318 15.6842C35.8779 16.0351 36.6637 16.2105 37.5891 16.2105C38.5146 16.2105 39.3004 16.0351 39.9465 15.6842C40.5926 15.3158 41.1164 14.8333 41.5181 14.2368C41.9197 13.6404 42.2078 12.9737 42.3824 12.2368C42.5745 11.4825 42.6705 10.7105 42.6705 9.92105C42.6705 9.09649 42.5745 8.29825 42.3824 7.52632C42.2078 6.75439 41.9197 6.07018 41.5181 5.47368C41.1164 4.85965 40.5926 4.37719 39.9465 4.02632C39.3004 3.65789 38.5146 3.47368 37.5891 3.47368C36.6637 3.47368 35.8779 3.65789 35.2318 4.02632C34.5857 4.37719 34.0618 4.85965 33.6602 5.47368C33.2586 6.07018 32.9617 6.75439 32.7697 7.52632C32.595 8.29825 32.5077 9.09649 32.5077 9.92105ZM28.3955 9.92105C28.3955 8.51754 28.605 7.2193 29.0241 6.02632C29.4432 4.81579 30.0456 3.76316 30.8314 2.86842C31.6172 1.97368 32.5776 1.27193 33.7126 0.763158C34.8651 0.254386 36.1573 0 37.5891 0C39.0385 0 40.3307 0.254386 41.4657 0.763158C42.6007 1.27193 43.5611 1.97368 44.3469 2.86842C45.1327 3.76316 45.7351 4.81579 46.1542 6.02632C46.5733 7.2193 46.7828 8.51754 46.7828 9.92105C46.7828 11.2895 46.5733 12.5702 46.1542 13.7632C45.7351 14.9386 45.1327 15.9649 44.3469 16.8421C43.5611 17.7193 42.6007 18.4123 41.4657 18.9211C40.3307 19.4123 39.0385 19.6579 37.5891 19.6579C36.1573 19.6579 34.8651 19.4123 33.7126 18.9211C32.5776 18.4123 31.6172 17.7193 30.8314 16.8421C30.0456 15.9649 29.4432 14.9386 29.0241 13.7632C28.605 12.5702 28.3955 11.2895 28.3955 9.92105Z" fill="#01187D"/>
<path d="M49.2009 5.63158H52.737V7.52632H52.8156C53.287 6.73684 53.8982 6.16667 54.6491 5.81579C55.3999 5.44737 56.1682 5.26316 56.954 5.26316C57.9493 5.26316 58.7613 5.40351 59.39 5.68421C60.036 5.94737 60.5424 6.32456 60.9091 6.81579C61.2758 7.28947 61.529 7.87719 61.6687 8.57895C61.8259 9.26316 61.9045 10.0263 61.9045 10.8684V19.2368H58.1851V11.5526C58.1851 10.4298 58.0105 9.59649 57.6612 9.05263C57.312 8.49123 56.6921 8.21053 55.8015 8.21053C54.7887 8.21053 54.0553 8.51754 53.6013 9.13158C53.1473 9.72807 52.9203 10.7193 52.9203 12.1053V19.2368H49.2009V5.63158Z" fill="#01187D"/>
<path d="M73.8425 10.9737C73.6678 10.0263 73.3535 9.30702 72.8995 8.81579C72.463 8.32456 71.7907 8.07895 70.8827 8.07895C70.289 8.07895 69.7913 8.18421 69.3897 8.39474C69.0055 8.58772 68.6912 8.83333 68.4467 9.13158C68.2197 9.42983 68.0538 9.74561 67.9491 10.0789C67.8618 10.4123 67.8094 10.7105 67.7919 10.9737H73.8425ZM67.7919 13.3421C67.8443 14.5526 68.1499 15.4298 68.7087 15.9737C69.2674 16.5175 70.0707 16.7895 71.1184 16.7895C71.8693 16.7895 72.5154 16.6053 73.0567 16.2368C73.598 15.8509 73.9298 15.4474 74.052 15.0263H77.3261C76.8022 16.6579 75.999 17.8246 74.9164 18.5263C73.8337 19.2281 72.5241 19.5789 70.9874 19.5789C69.9223 19.5789 68.9619 19.4123 68.1062 19.0789C67.2506 18.7281 66.5259 18.2368 65.9322 17.6053C65.3385 16.9737 64.8758 16.2193 64.544 15.3421C64.2297 14.4649 64.0725 13.5 64.0725 12.4474C64.0725 11.4298 64.2384 10.4825 64.5702 9.60526C64.902 8.72807 65.3734 7.97368 65.9846 7.34211C66.5958 6.69298 67.3204 6.18421 68.1586 5.81579C69.0142 5.44737 69.9572 5.26316 70.9874 5.26316C72.1399 5.26316 73.144 5.49123 73.9996 5.94737C74.8552 6.38597 75.5537 6.98246 76.095 7.73684C76.6538 8.49123 77.0554 9.35088 77.2999 10.3158C77.5444 11.2807 77.6317 12.2895 77.5618 13.3421H67.7919Z" fill="#01187D"/>
<path d="M92.6284 6.76316C92.5586 6.28947 92.4014 5.85965 92.157 5.47368C91.9125 5.07018 91.6069 4.7193 91.2402 4.42105C90.8735 4.12281 90.4544 3.89474 89.983 3.73684C89.5289 3.5614 89.0487 3.47368 88.5424 3.47368C87.6169 3.47368 86.8311 3.65789 86.185 4.02632C85.5389 4.37719 85.0151 4.85965 84.6134 5.47368C84.2118 6.07018 83.915 6.75439 83.7229 7.52632C83.5483 8.29825 83.4609 9.09649 83.4609 9.92105C83.4609 10.7105 83.5483 11.4825 83.7229 12.2368C83.915 12.9737 84.2118 13.6404 84.6134 14.2368C85.0151 14.8333 85.5389 15.3158 86.185 15.6842C86.8311 16.0351 87.6169 16.2105 88.5424 16.2105C89.7996 16.2105 90.7775 15.8246 91.476 15.0526C92.1919 14.2807 92.6284 13.2632 92.7856 12H96.7669C96.6621 13.1754 96.3915 14.2368 95.9549 15.1842C95.5184 16.1316 94.9421 16.9386 94.2262 17.6053C93.5103 18.2719 92.6721 18.7807 91.7117 19.1316C90.7513 19.4825 89.6948 19.6579 88.5424 19.6579C87.1105 19.6579 85.8183 19.4123 84.6658 18.9211C83.5308 18.4123 82.5704 17.7193 81.7846 16.8421C80.9988 15.9649 80.3964 14.9386 79.9773 13.7632C79.5582 12.5702 79.3487 11.2895 79.3487 9.92105C79.3487 8.51754 79.5582 7.2193 79.9773 6.02632C80.3964 4.81579 80.9988 3.76316 81.7846 2.86842C82.5704 1.97368 83.5308 1.27193 84.6658 0.763158C85.8183 0.254386 87.1105 0 88.5424 0C89.5726 0 90.5417 0.149122 91.4498 0.447367C92.3752 0.745613 93.1959 1.18421 93.9119 1.76316C94.6453 2.32456 95.2477 3.02632 95.7192 3.86842C96.1907 4.71053 96.4875 5.67544 96.6097 6.76316H92.6284Z" fill="#01187D"/>
<path d="M99.025 9.81579C99.0774 8.9386 99.2957 8.21053 99.6798 7.63158C100.064 7.05263 100.553 6.58772 101.147 6.23684C101.74 5.88596 102.404 5.64035 103.137 5.5C103.888 5.34211 104.639 5.26316 105.39 5.26316C106.071 5.26316 106.761 5.31579 107.459 5.42105C108.158 5.50877 108.795 5.69298 109.371 5.97368C109.947 6.25439 110.419 6.64912 110.786 7.15789C111.152 7.64912 111.336 8.30702 111.336 9.13158V16.2105C111.336 16.8246 111.371 17.4123 111.44 17.9737C111.51 18.5351 111.632 18.9561 111.807 19.2368H108.035C107.965 19.0263 107.904 18.8158 107.852 18.6053C107.817 18.3772 107.791 18.1491 107.773 17.9211C107.18 18.5351 106.481 18.9649 105.678 19.2105C104.875 19.4561 104.054 19.5789 103.216 19.5789C102.57 19.5789 101.967 19.5 101.409 19.3421C100.85 19.1842 100.361 18.9386 99.9418 18.6053C99.5227 18.2719 99.1909 17.8509 98.9464 17.3421C98.7194 16.8333 98.6059 16.2281 98.6059 15.5263C98.6059 14.7544 98.7369 14.1228 98.9988 13.6316C99.2782 13.1228 99.6274 12.7193 100.047 12.4211C100.483 12.1228 100.972 11.9035 101.513 11.7632C102.072 11.6053 102.631 11.4825 103.19 11.3947C103.748 11.307 104.298 11.2368 104.84 11.1842C105.381 11.1316 105.861 11.0526 106.28 10.9474C106.699 10.8421 107.031 10.693 107.276 10.5C107.52 10.2895 107.634 9.99123 107.616 9.60526C107.616 9.20175 107.546 8.88596 107.407 8.65789C107.284 8.41228 107.11 8.22807 106.883 8.10526C106.673 7.96491 106.42 7.87719 106.123 7.84211C105.844 7.78947 105.538 7.76316 105.207 7.76316C104.473 7.76316 103.897 7.92105 103.478 8.23684C103.059 8.55263 102.814 9.07895 102.744 9.81579H99.025ZM107.616 12.5789C107.459 12.7193 107.258 12.8333 107.014 12.9211C106.787 12.9912 106.534 13.0526 106.254 13.1053C105.992 13.1579 105.713 13.2018 105.416 13.2368C105.119 13.2719 104.822 13.3158 104.525 13.3684C104.246 13.4211 103.967 13.4912 103.687 13.5789C103.425 13.6667 103.19 13.7895 102.98 13.9474C102.788 14.0877 102.631 14.2719 102.509 14.5C102.386 14.7281 102.325 15.0175 102.325 15.3684C102.325 15.7018 102.386 15.9825 102.509 16.2105C102.631 16.4386 102.797 16.6228 103.006 16.7632C103.216 16.886 103.46 16.9737 103.74 17.0263C104.019 17.0789 104.307 17.1053 104.604 17.1053C105.337 17.1053 105.905 16.9825 106.307 16.7368C106.708 16.4912 107.005 16.2018 107.197 15.8684C107.389 15.5175 107.503 15.1667 107.538 14.8158C107.59 14.4649 107.616 14.1842 107.616 13.9737V12.5789Z" fill="#01187D"/>
<path d="M121.059 16.7895C121.67 16.7895 122.176 16.6667 122.578 16.4211C122.997 16.1754 123.329 15.8596 123.573 15.4737C123.835 15.0702 124.019 14.6053 124.123 14.0789C124.228 13.5526 124.281 13.0175 124.281 12.4737C124.281 11.9298 124.219 11.3947 124.097 10.8684C123.992 10.3421 123.809 9.87719 123.547 9.47368C123.285 9.05263 122.945 8.7193 122.526 8.47368C122.124 8.21053 121.626 8.07895 121.033 8.07895C120.422 8.07895 119.906 8.21053 119.487 8.47368C119.086 8.7193 118.754 9.04386 118.492 9.44737C118.248 9.85088 118.073 10.3158 117.968 10.8421C117.863 11.3684 117.811 11.9123 117.811 12.4737C117.811 13.0175 117.863 13.5526 117.968 14.0789C118.09 14.6053 118.274 15.0702 118.518 15.4737C118.78 15.8596 119.121 16.1754 119.54 16.4211C119.959 16.6667 120.465 16.7895 121.059 16.7895ZM114.223 5.63158H117.759V7.36842H117.811C118.265 6.63158 118.841 6.09649 119.54 5.76316C120.238 5.42982 121.007 5.26316 121.845 5.26316C122.91 5.26316 123.827 5.46491 124.595 5.86842C125.363 6.27193 126.001 6.80702 126.507 7.47368C127.013 8.14035 127.389 8.92105 127.633 9.81579C127.878 10.693 128 11.614 128 12.5789C128 13.4912 127.878 14.3684 127.633 15.2105C127.389 16.0526 127.013 16.7982 126.507 17.4474C126.018 18.0965 125.398 18.614 124.647 19C123.914 19.386 123.05 19.5789 122.054 19.5789C121.216 19.5789 120.439 19.4123 119.723 19.0789C119.025 18.7281 118.448 18.2193 117.994 17.5526H117.942V24H114.223V5.63158Z" fill="#01187D"/>
</svg>
