<svg width="150" height="28" viewBox="0 0 150 28" fill="none" xmlns="http://www.w3.org/2000/svg">
<path fill-rule="evenodd" clip-rule="evenodd" d="M9.00762 0.197545C4.86726 0.738738 1.41021 3.91804 0.224692 8.27462C0.0498662 8.91759 0.00270054 9.53515 0.000414449 11.2166C-0.00259357 13.3989 -0.00512041 13.3808 0.605747 15.4104C1.43283 18.1577 3.9426 20.8542 6.63658 21.8899C7.80802 22.3404 9.0525 22.5409 10.6921 22.5437C13.0151 22.5477 14.3869 22.1764 15.9887 21.1102C16.8322 20.5488 17.9715 19.4486 17.9715 19.1956C17.9715 19.0941 17.7785 18.6805 17.5426 18.2762C17.3066 17.8721 16.9785 17.1888 16.8135 16.7577C16.1496 15.0226 15.9205 14.5341 15.7706 14.5341C15.7076 14.5341 15.3021 14.8785 14.8696 15.2994C13.3861 16.7433 12.219 17.2882 10.6102 17.2882C9.09509 17.2882 7.77313 16.6868 6.59615 15.4622C4.43002 13.2084 4.49956 9.44626 6.75064 7.1041C7.88635 5.92232 9.3237 5.32429 10.7663 5.43333C12.5328 5.56678 13.3722 5.92632 14.4087 6.99318C15.7102 8.33283 16.1252 9.40332 16.232 11.6965C16.4036 15.3806 17.679 18.0988 20.1631 20.0748C21.0258 20.7612 23.1672 21.9202 23.5723 21.9202C23.6771 21.9202 23.8673 21.9784 23.9951 22.0497C24.3735 22.2604 26.6715 22.5352 26.8452 22.3904C27.0389 22.2291 27.0628 17.4714 26.8704 17.3477C26.8016 17.3035 26.3133 17.1599 25.7852 17.0287C24.2457 16.6461 23.2536 16.0057 22.4194 14.8561C21.7042 13.8706 21.4604 12.9482 21.4626 11.2367C21.4651 9.20189 21.8188 8.16445 22.8895 7.05039C23.7037 6.20324 25.6412 5.27008 26.586 5.27008C26.9824 5.27008 27.0091 5.06953 26.9696 2.39073L26.9354 0.0747349L26.033 0.107409C23.9886 0.181271 21.6197 1.17014 19.8365 2.69381C19.3071 3.14612 18.8157 3.51656 18.7444 3.51681C18.6733 3.51718 18.4838 3.37034 18.3233 3.19057C17.8893 2.70421 16.8014 1.86632 16.0057 1.40574C14.9059 0.769033 13.3147 0.282924 11.8604 0.139458C10.3929 -0.00526092 10.5898 -0.009267 9.00762 0.197545Z" fill="#01187D"/>
<path d="M38.095 11.5746C38.095 12.4956 38.1973 13.3962 38.4019 14.2763C38.627 15.136 38.9749 15.9137 39.4456 16.6096C39.9162 17.3056 40.5301 17.8684 41.2873 18.2982C42.0444 18.7076 42.9652 18.9123 44.0498 18.9123C45.1343 18.9123 46.0552 18.7076 46.8123 18.2982C47.5694 17.8684 48.1833 17.3056 48.654 16.6096C49.1246 15.9137 49.4623 15.136 49.6669 14.2763C49.892 13.3962 50.0045 12.4956 50.0045 11.5746C50.0045 10.6126 49.892 9.68129 49.6669 8.7807C49.4623 7.88012 49.1246 7.08187 48.654 6.38597C48.1833 5.66959 47.5694 5.10672 46.8123 4.69737C46.0552 4.26754 45.1343 4.05263 44.0498 4.05263C42.9652 4.05263 42.0444 4.26754 41.2873 4.69737C40.5301 5.10672 39.9162 5.66959 39.4456 6.38597C38.9749 7.08187 38.627 7.88012 38.4019 8.7807C38.1973 9.68129 38.095 10.6126 38.095 11.5746ZM33.2759 11.5746C33.2759 9.93713 33.5215 8.42251 34.0126 7.0307C34.5037 5.61842 35.2097 4.39035 36.1305 3.34649C37.0514 2.30263 38.1769 1.48392 39.507 0.89035C40.8575 0.296783 42.3718 0 44.0498 0C45.7482 0 47.2625 0.296783 48.5926 0.89035C49.9227 1.48392 51.0482 2.30263 51.969 3.34649C52.8899 4.39035 53.5958 5.61842 54.0869 7.0307C54.5781 8.42251 54.8236 9.93713 54.8236 11.5746C54.8236 13.1711 54.5781 14.6652 54.0869 16.057C53.5958 17.4284 52.8899 18.6257 51.969 19.6491C51.0482 20.6725 49.9227 21.481 48.5926 22.0746C47.2625 22.6477 45.7482 22.9342 44.0498 22.9342C42.3718 22.9342 40.8575 22.6477 39.507 22.0746C38.1769 21.481 37.0514 20.6725 36.1305 19.6491C35.2097 18.6257 34.5037 17.4284 34.0126 16.057C33.5215 14.6652 33.2759 13.1711 33.2759 11.5746Z" fill="#01187D"/>
<path d="M57.6574 6.57018H61.8011V8.7807H61.8932C62.4457 7.85965 63.1619 7.19444 64.0419 6.78509C64.9218 6.35526 65.8222 6.14035 66.743 6.14035C67.9094 6.14035 68.8609 6.30409 69.5976 6.63158C70.3547 6.9386 70.9482 7.37866 71.3779 7.95175C71.8076 8.50439 72.1043 9.19006 72.268 10.0088C72.4522 10.807 72.5443 11.6974 72.5443 12.6798V22.443H68.1856V13.4781C68.1856 12.1681 67.981 11.1959 67.5718 10.5614C67.1625 9.90643 66.4361 9.57895 65.3924 9.57895C64.2056 9.57895 63.3461 9.93713 62.8141 10.6535C62.282 11.3494 62.016 12.5058 62.016 14.1228V22.443H57.6574V6.57018Z" fill="#01187D"/>
<path d="M86.5341 12.8026C86.3295 11.6974 85.9612 10.8582 85.4291 10.2851C84.9175 9.71199 84.1297 9.42544 83.0656 9.42544C82.3699 9.42544 81.7867 9.54825 81.316 9.79386C80.8658 10.019 80.4975 10.3056 80.211 10.6535C79.945 11.0015 79.7506 11.3699 79.6278 11.7588C79.5255 12.1477 79.4641 12.4956 79.4436 12.8026H86.5341ZM79.4436 15.5658C79.505 16.9781 79.8631 18.0015 80.518 18.636C81.1728 19.2705 82.1141 19.5877 83.3419 19.5877C84.2218 19.5877 84.9789 19.3728 85.6133 18.943C86.2477 18.4927 86.6364 18.0219 86.7797 17.5307H90.6165C90.0026 19.4342 89.0613 20.7953 87.7926 21.614C86.5239 22.4328 84.9892 22.8421 83.1884 22.8421C81.9402 22.8421 80.8147 22.6477 79.812 22.2588C78.8093 21.8494 77.9601 21.2763 77.2643 20.5395C76.5686 19.8026 76.0263 18.9225 75.6375 17.8991C75.2692 16.8757 75.085 15.75 75.085 14.5219C75.085 13.3348 75.2794 12.2295 75.6682 11.2061C76.057 10.1827 76.6095 9.30263 77.3257 8.56579C78.0419 7.80848 78.8912 7.21491 79.8734 6.78509C80.8761 6.35526 81.9811 6.14035 83.1884 6.14035C84.539 6.14035 85.7156 6.40643 86.7183 6.9386C87.721 7.45029 88.5395 8.1462 89.1739 9.02632C89.8287 9.90643 90.2993 10.9094 90.5858 12.0351C90.8723 13.1608 90.9746 14.3377 90.8928 15.5658H79.4436Z" fill="#01187D"/>
<path d="M108.549 7.89035C108.467 7.33772 108.283 6.83626 107.996 6.38597C107.71 5.91521 107.352 5.50585 106.922 5.15789C106.492 4.80994 106.001 4.54386 105.449 4.35965C104.917 4.15497 104.354 4.05263 103.761 4.05263C102.676 4.05263 101.755 4.26754 100.998 4.69737C100.241 5.10672 99.627 5.66959 99.1564 6.38597C98.6857 7.08187 98.3378 7.88012 98.1127 8.7807C97.9081 9.68129 97.8058 10.6126 97.8058 11.5746C97.8058 12.4956 97.9081 13.3962 98.1127 14.2763C98.3378 15.136 98.6857 15.9137 99.1564 16.6096C99.627 17.3056 100.241 17.8684 100.998 18.2982C101.755 18.7076 102.676 18.9123 103.761 18.9123C105.234 18.9123 106.38 18.462 107.198 17.5614C108.037 16.6608 108.549 15.4737 108.733 14H113.399C113.276 15.3713 112.959 16.6096 112.447 17.7149C111.936 18.8202 111.26 19.7617 110.421 20.5395C109.582 21.3173 108.6 21.9108 107.475 22.3202C106.349 22.7295 105.111 22.9342 103.761 22.9342C102.083 22.9342 100.568 22.6477 99.2178 22.0746C97.8877 21.481 96.7622 20.6725 95.8413 19.6491C94.9205 18.6257 94.2145 17.4284 93.7234 16.057C93.2323 14.6652 92.9867 13.1711 92.9867 11.5746C92.9867 9.93713 93.2323 8.42251 93.7234 7.0307C94.2145 5.61842 94.9205 4.39035 95.8413 3.34649C96.7622 2.30263 97.8877 1.48392 99.2178 0.89035C100.568 0.296783 102.083 0 103.761 0C104.968 0 106.104 0.173976 107.168 0.521929C108.252 0.869882 109.214 1.38158 110.053 2.05702C110.912 2.71199 111.618 3.5307 112.171 4.51316C112.723 5.49561 113.071 6.62135 113.215 7.89035H108.549Z" fill="#01187D"/>
<path d="M116.045 11.4518C116.106 10.4284 116.362 9.57895 116.812 8.90351C117.262 8.22807 117.835 7.68567 118.531 7.27632C119.227 6.86696 120.005 6.58041 120.864 6.41667C121.744 6.23246 122.624 6.14035 123.504 6.14035C124.302 6.14035 125.11 6.20175 125.929 6.32456C126.747 6.4269 127.494 6.64181 128.169 6.9693C128.845 7.29678 129.397 7.75731 129.827 8.35088C130.257 8.92398 130.471 9.69152 130.471 10.6535V18.9123C130.471 19.6287 130.512 20.3143 130.594 20.9693C130.676 21.6243 130.819 22.1155 131.024 22.443H126.604C126.522 22.1974 126.45 21.9518 126.389 21.7061C126.348 21.4401 126.317 21.174 126.297 20.9079C125.601 21.6243 124.783 22.1257 123.841 22.4123C122.9 22.6988 121.938 22.8421 120.956 22.8421C120.199 22.8421 119.493 22.75 118.838 22.5658C118.183 22.3816 117.61 22.095 117.119 21.7061C116.628 21.3173 116.239 20.826 115.953 20.2325C115.687 19.6389 115.554 18.9327 115.554 18.114C115.554 17.2135 115.707 16.4766 116.014 15.9035C116.342 15.3099 116.751 14.8392 117.242 14.4912C117.754 14.1433 118.327 13.8874 118.961 13.7237C119.616 13.5395 120.271 13.3962 120.925 13.2939C121.58 13.1915 122.225 13.1096 122.859 13.0482C123.494 12.9868 124.056 12.8947 124.547 12.7719C125.038 12.6491 125.427 12.4751 125.714 12.25C126 12.0044 126.133 11.6564 126.113 11.2061C126.113 10.7354 126.031 10.367 125.867 10.1009C125.724 9.81433 125.519 9.59942 125.253 9.45614C125.008 9.2924 124.711 9.19006 124.363 9.14912C124.036 9.08772 123.678 9.05702 123.289 9.05702C122.429 9.05702 121.754 9.24123 121.263 9.60965C120.772 9.97807 120.485 10.5921 120.404 11.4518H116.045ZM126.113 14.6754C125.929 14.8392 125.693 14.9722 125.407 15.0746C125.141 15.1564 124.844 15.2281 124.517 15.2895C124.21 15.3509 123.882 15.402 123.534 15.443C123.187 15.4839 122.839 15.5351 122.491 15.5965C122.163 15.6579 121.836 15.7398 121.509 15.8421C121.202 15.9444 120.925 16.0877 120.68 16.2719C120.455 16.4357 120.271 16.6506 120.127 16.9167C119.984 17.1827 119.912 17.5205 119.912 17.9298C119.912 18.3187 119.984 18.6462 120.127 18.9123C120.271 19.1784 120.465 19.3933 120.711 19.557C120.956 19.7003 121.243 19.8026 121.57 19.864C121.897 19.9254 122.235 19.9561 122.583 19.9561C123.442 19.9561 124.107 19.8129 124.578 19.5263C125.049 19.2398 125.397 18.902 125.622 18.5132C125.847 18.1038 125.98 17.6944 126.021 17.2851C126.082 16.8757 126.113 16.5482 126.113 16.3026V14.6754Z" fill="#01187D"/>
<path d="M141.866 19.5877C142.582 19.5877 143.176 19.4444 143.646 19.1579C144.137 18.8713 144.526 18.5029 144.813 18.0526C145.12 17.5819 145.334 17.0395 145.457 16.4254C145.58 15.8114 145.641 15.1871 145.641 14.5526C145.641 13.9181 145.57 13.2939 145.426 12.6798C145.304 12.0658 145.089 11.5234 144.782 11.0526C144.475 10.5614 144.076 10.1725 143.585 9.88597C143.114 9.57895 142.531 9.42544 141.835 9.42544C141.119 9.42544 140.515 9.57895 140.024 9.88597C139.554 10.1725 139.165 10.5512 138.858 11.0219C138.571 11.4927 138.367 12.0351 138.244 12.6491C138.121 13.2632 138.06 13.8977 138.06 14.5526C138.06 15.1871 138.121 15.8114 138.244 16.4254C138.387 17.0395 138.602 17.5819 138.889 18.0526C139.195 18.5029 139.594 18.8713 140.086 19.1579C140.577 19.4444 141.17 19.5877 141.866 19.5877ZM133.855 6.57018H137.998V8.59649H138.06C138.592 7.73684 139.267 7.11257 140.086 6.72368C140.904 6.3348 141.805 6.14035 142.787 6.14035C144.035 6.14035 145.109 6.37573 146.01 6.84649C146.91 7.31725 147.657 7.94152 148.25 8.7193C148.844 9.49708 149.284 10.4079 149.57 11.4518C149.857 12.4751 150 13.5497 150 14.6754C150 15.7398 149.857 16.7632 149.57 17.7456C149.284 18.7281 148.844 19.598 148.25 20.3553C147.677 21.1126 146.951 21.7164 146.071 22.1667C145.212 22.617 144.199 22.8421 143.032 22.8421C142.05 22.8421 141.139 22.6477 140.3 22.2588C139.482 21.8494 138.807 21.2558 138.275 20.4781H138.213V28H133.855V6.57018Z" fill="#01187D"/>
</svg>
