<svg width="24" height="24" viewBox="0 0 24 24" fill="none" xmlns="http://www.w3.org/2000/svg">
<path d="M11.9998 7.85165V21.3331M11.9998 7.85165C11.6247 6.30585 10.9788 4.98431 10.1464 4.05938C9.31394 3.13444 8.33359 2.64904 7.33317 2.66647C6.64557 2.66647 5.98614 2.93962 5.49993 3.42582C5.01373 3.91203 4.74058 4.57146 4.74058 5.25906C4.74058 5.94666 5.01373 6.6061 5.49993 7.0923C5.98614 7.57851 6.64557 7.85165 7.33317 7.85165M11.9998 7.85165C12.375 6.30585 13.0209 4.98431 13.8533 4.05938C14.6857 3.13444 15.6661 2.64904 16.6665 2.66647C17.3541 2.66647 18.0135 2.93962 18.4997 3.42582C18.9859 3.91203 19.2591 4.57146 19.2591 5.25906C19.2591 5.94666 18.9859 6.6061 18.4997 7.0923C18.0135 7.57851 17.3541 7.85165 16.6665 7.85165M19.2591 11.9998V19.2591C19.2591 19.8091 19.0406 20.3367 18.6516 20.7257C18.2626 21.1146 17.7351 21.3331 17.185 21.3331H6.81465C6.26457 21.3331 5.73702 21.1146 5.34806 20.7257C4.9591 20.3367 4.74058 19.8091 4.74058 19.2591V11.9998M2.6665 8.88869C2.6665 8.61365 2.77576 8.34988 2.97024 8.1554C3.16473 7.96091 3.4285 7.85165 3.70354 7.85165H20.2961C20.5712 7.85165 20.8349 7.96091 21.0294 8.1554C21.2239 8.34988 21.3332 8.61365 21.3332 8.88869V10.9628C21.3332 11.2378 21.2239 11.5016 21.0294 11.6961C20.8349 11.8905 20.5712 11.9998 20.2961 11.9998H3.70354C3.4285 11.9998 3.16473 11.8905 2.97024 11.6961C2.77576 11.5016 2.6665 11.2378 2.6665 10.9628V8.88869Z" stroke="#A3AED0" stroke-width="2" stroke-linecap="round" stroke-linejoin="round"/>
</svg>
