<svg width="20" height="20" viewBox="0 0 20 20" fill="none" xmlns="http://www.w3.org/2000/svg">
<path d="M14.3851 11.5391C14.2995 11.6143 14.2358 11.7113 14.2009 11.8199C14.1659 11.9284 14.161 12.0444 14.1867 12.1555L15.2429 16.7289C15.2709 16.8484 15.263 16.9734 15.2204 17.0884C15.1777 17.2034 15.1022 17.3033 15.0031 17.3757C14.9041 17.4481 14.786 17.4897 14.6634 17.4955C14.5409 17.5012 14.4194 17.4707 14.314 17.4078L10.3219 14.9859C10.2248 14.927 10.1135 14.8958 9.99998 14.8958C9.88645 14.8958 9.7751 14.927 9.6781 14.9859L5.68591 17.4078C5.58058 17.4707 5.45907 17.5012 5.33654 17.4955C5.214 17.4897 5.09585 17.4481 4.99682 17.3757C4.89778 17.3033 4.82223 17.2034 4.77959 17.0884C4.73695 16.9734 4.72909 16.8484 4.75701 16.7289L5.81326 12.1555C5.83893 12.0444 5.83404 11.9284 5.7991 11.8199C5.76416 11.7113 5.70048 11.6143 5.61482 11.5391L2.0906 8.46484C1.99638 8.38476 1.92803 8.27854 1.8942 8.1596C1.86038 8.04067 1.86259 7.91437 1.90056 7.79669C1.93853 7.67901 2.01056 7.57524 2.10752 7.49851C2.20449 7.42178 2.32203 7.37553 2.44529 7.36562L7.0906 6.96406C7.20393 6.95397 7.31236 6.91312 7.40419 6.84594C7.49602 6.77875 7.56777 6.68777 7.61169 6.58281L9.42654 2.25781C9.47501 2.14599 9.55512 2.05079 9.657 1.98391C9.75889 1.91703 9.8781 1.8814 9.99998 1.8814C10.1218 1.8814 10.2411 1.91703 10.3429 1.98391C10.4448 2.05079 10.5249 2.14599 10.5734 2.25781L12.3883 6.58281C12.4322 6.68777 12.5039 6.77875 12.5958 6.84594C12.6876 6.91312 12.796 6.95397 12.9094 6.96406L17.5547 7.36562C17.6779 7.37553 17.7955 7.42178 17.8924 7.49851C17.9894 7.57524 18.0614 7.67901 18.0994 7.79669C18.1374 7.91437 18.1396 8.04067 18.1057 8.1596C18.0719 8.27854 18.0036 8.38476 17.9094 8.46484L14.3851 11.5391Z" fill="#1C1C1C" fill-opacity="0.1"/>
</svg>
