<svg width="193" height="192" viewBox="0 0 193 192" fill="none" xmlns="http://www.w3.org/2000/svg">
<path d="M42.9229 78.0048L87.7128 95.9208C92.0518 97.6565 94.2214 98.5243 96.4995 98.5243C98.7777 98.5243 100.949 97.6569 105.288 95.9213L150.078 78.0053C152.437 77.0614 153.617 76.5894 153.617 75.7769C153.617 75.6749 153.599 75.5782 153.561 75.4853C153.302 74.8385 152.141 74.374 150.078 73.5486L105.288 55.6326C100.949 53.897 98.7777 53.0287 96.4995 53.0287C94.2214 53.0287 92.0518 53.8965 87.7128 55.6322L42.9229 73.5481C40.8595 74.3735 39.6982 74.838 39.439 75.4848C39.4018 75.5778 39.3831 75.6744 39.3831 75.7765C39.3831 76.5889 40.5631 77.0609 42.9229 78.0048Z" fill="#1A1511"/>
<path d="M155.648 117.18L122.115 130.593C123.25 131.369 125.921 133.202 127.524 134.334C129.528 135.749 131.179 135.948 135.069 134.334C138.182 133.043 150.086 128.373 155.648 126.2V117.18Z" fill="#1A1511"/>
<path d="M96.4995 98.5243L86.1979 124.159C84.936 127.188 84.0503 129.314 83.067 130.736C83.9063 131.065 85.9767 131.864 87.5445 132.43C89.5043 133.138 92.4042 132.112 93.0972 129.218C93.7902 126.325 96.4995 115.067 96.4995 115.067V98.5243Z" fill="#1A1511"/>
<path d="M35.2095 47.7526L50.3092 49.2759" stroke="#1A1511" stroke-width="1.6875" stroke-linecap="round" stroke-linejoin="round"/>
<path d="M157.792 47.7526L142.692 49.2759" stroke="#1A1511" stroke-width="1.6875" stroke-linecap="round" stroke-linejoin="round"/>
<path d="M50.8482 26.6984L61.7928 33.575" stroke="#1A1511" stroke-width="1.6875" stroke-linecap="round" stroke-linejoin="round"/>
<path d="M142.153 26.6984L131.209 33.575" stroke="#1A1511" stroke-width="1.6875" stroke-linecap="round" stroke-linejoin="round"/>
<path d="M87.7124 166.897C92.0514 168.633 94.2209 169.501 96.4991 169.501C96.4991 167.216 96.4991 164.93 96.4991 162.645C96.4991 166.898 91.4099 168.376 87.7124 166.897Z" fill="#1A1511"/>
<path d="M96.4991 169.501C98.7772 169.501 100.948 168.633 105.287 166.898C101.51 168.409 96.4991 166.898 96.4991 162.645V169.501Z" fill="#1A1511"/>
<path d="M87.7124 166.897L52.2239 152.702C45.0209 149.821 41.4194 148.38 39.3855 145.376C37.3516 142.372 37.3516 138.493 37.3516 130.735V122.202M87.7124 166.897C92.0514 168.633 94.2209 169.501 96.4991 169.501M87.7124 166.897C91.4099 168.376 96.4991 166.898 96.4991 162.645M96.4991 169.501C98.7772 169.501 100.948 168.633 105.287 166.898M96.4991 169.501C96.4991 167.216 96.4991 164.93 96.4991 162.645M96.4991 169.501V162.645M96.4991 98.5237C94.2209 98.5237 92.0514 97.6559 87.7123 95.9203L42.9225 78.0043C40.5626 77.0604 39.3827 76.5884 39.3827 75.776C39.3827 75.6739 39.4013 75.5772 39.4386 75.4843M96.4991 98.5237L86.1975 124.159C84.0805 129.24 83.0221 131.78 80.7861 132.719C78.5502 133.659 75.995 132.637 70.8846 130.593L34.2218 115.927C28.7555 113.741 26.0223 112.648 25.0866 110.271C24.1509 107.895 25.4047 105.232 27.9124 99.9053L38.9752 76.4066L39.4386 75.4843M96.4991 98.5237C98.7772 98.5237 100.948 97.6564 105.287 95.9207L150.077 78.0048C152.437 77.0608 153.617 76.5888 153.617 75.7764C153.617 75.6743 153.598 75.5777 153.561 75.4847M96.4991 98.5237L106.802 124.159C108.919 129.24 109.978 131.78 112.214 132.72C114.449 133.659 117.005 132.637 122.115 130.593L155.648 117.18M96.4991 98.5237C96.4991 98.5237 96.4991 158.393 96.4991 162.645M39.4386 75.4843C39.6978 74.8375 40.8591 74.373 42.9225 73.5476L87.7123 55.6316C92.0514 53.896 94.2209 53.0282 96.4991 53.0282C98.7772 53.0282 100.948 53.8964 105.287 55.6321L150.077 73.5481C152.141 74.3734 153.302 74.8379 153.561 75.4847M105.287 166.898L140.776 152.702C147.979 149.821 151.58 148.381 153.614 145.376C155.648 142.372 155.648 138.493 155.648 130.736V117.18M105.287 166.898C101.51 168.409 96.4991 166.898 96.4991 162.645M155.648 117.18L158.778 115.928C164.244 113.741 166.977 112.648 167.913 110.272C168.849 107.896 167.595 105.232 165.087 99.9058L154.024 76.4071L153.561 75.4847" stroke="#1A1511" stroke-width="1.5" stroke-linecap="round"/>
</svg>
