<svg width="17" height="16" viewBox="0 0 17 16" fill="none" xmlns="http://www.w3.org/2000/svg">
<path d="M11.1667 2V4.66667M5.83335 2V4.66667M3.16669 7.33333H13.8334M5.83335 9.33333V12M8.50002 9.33333V12M11.1667 9.33333V12M3.16669 4.66667C3.16669 4.31304 3.30716 3.97391 3.55721 3.72386C3.80726 3.47381 4.1464 3.33333 4.50002 3.33333H12.5C12.8536 3.33333 13.1928 3.47381 13.4428 3.72386C13.6929 3.97391 13.8334 4.31304 13.8334 4.66667V12.6667C13.8334 13.0203 13.6929 13.3594 13.4428 13.6095C13.1928 13.8595 12.8536 14 12.5 14H4.50002C4.1464 14 3.80726 13.8595 3.55721 13.6095C3.30716 13.3594 3.16669 13.0203 3.16669 12.6667V4.66667Z" stroke="#E0E0E0" stroke-width="1.5" stroke-linecap="round" stroke-linejoin="round"/>
</svg>
