<svg width="17" height="16" viewBox="0 0 17 16" fill="none" xmlns="http://www.w3.org/2000/svg">
<path d="M8.49998 10.6666V10.6733M8.49998 8.66665C8.79981 8.66755 9.0912 8.56737 9.32708 8.38227C9.56297 8.19718 9.72958 7.93798 9.80001 7.64654C9.87044 7.35509 9.84059 7.04841 9.71527 6.77603C9.58994 6.50364 9.37647 6.28144 9.10931 6.14532C8.8441 6.00946 8.54072 5.96733 8.24852 6.0258C7.95632 6.08426 7.6925 6.23987 7.49998 6.46732M9.03439 1.4433L12.7511 3.03597C13.0711 3.1733 13.3264 3.42863 13.4644 3.7493L15.0564 7.4653C15.2031 7.80663 15.2031 8.1933 15.0564 8.53463L13.4637 12.2513C13.3264 12.5713 13.0711 12.8266 12.7504 12.9646L9.03439 14.5566C8.69306 14.7033 8.30639 14.7033 7.96506 14.5566L4.24839 12.964C3.9278 12.8267 3.67236 12.5712 3.53505 12.2506L1.94305 8.53463C1.87065 8.36568 1.83331 8.18378 1.83331 7.99997C1.83331 7.81615 1.87065 7.63425 1.94305 7.4653L3.53572 3.74863C3.67305 3.42863 3.92839 3.1733 4.24905 3.0353L7.96506 1.4433C8.13401 1.37089 8.31591 1.33356 8.49972 1.33356C8.68354 1.33356 8.86544 1.37089 9.03439 1.4433Z" stroke="#E0E0E0" stroke-width="1.5" stroke-linecap="round" stroke-linejoin="round"/>
</svg>
