<svg width="17" height="16" viewBox="0 0 17 16" fill="none" xmlns="http://www.w3.org/2000/svg">
<path d="M2.5 14V12.6667C2.5 11.9594 2.78095 11.2811 3.28105 10.781C3.78115 10.281 4.45942 10 5.16667 10H7.83333C8.54058 10 9.21885 10.281 9.71895 10.781C10.219 11.2811 10.5 11.9594 10.5 12.6667V14M11.1667 2.08659C11.7403 2.23346 12.2487 2.56706 12.6118 3.0348C12.9748 3.50254 13.1719 4.07781 13.1719 4.66992C13.1719 5.26204 12.9748 5.83731 12.6118 6.30505C12.2487 6.77279 11.7403 7.10639 11.1667 7.25326M14.5 13.9999V12.6666C14.4966 12.078 14.2986 11.5071 13.9368 11.0429C13.5751 10.5786 13.0699 10.2471 12.5 10.0999M3.83333 4.66667C3.83333 5.37391 4.11428 6.05219 4.61438 6.55229C5.11448 7.05238 5.79276 7.33333 6.5 7.33333C7.20724 7.33333 7.88552 7.05238 8.38562 6.55229C8.88572 6.05219 9.16667 5.37391 9.16667 4.66667C9.16667 3.95942 8.88572 3.28115 8.38562 2.78105C7.88552 2.28095 7.20724 2 6.5 2C5.79276 2 5.11448 2.28095 4.61438 2.78105C4.11428 3.28115 3.83333 3.95942 3.83333 4.66667Z" stroke="#E0E0E0" stroke-width="1.5" stroke-linecap="round" stroke-linejoin="round"/>
</svg>
