<svg width="17" height="16" viewBox="0 0 17 16" fill="none" xmlns="http://www.w3.org/2000/svg">
<path d="M5.83333 6.00002H11.1667M5.83333 8.66669H9.83333M12.5 2.66669C13.0304 2.66669 13.5391 2.8774 13.9142 3.25247C14.2893 3.62755 14.5 4.13625 14.5 4.66669V10C14.5 10.5305 14.2893 11.0392 13.9142 11.4142C13.5391 11.7893 13.0304 12 12.5 12H9.16667L5.83333 14V12H4.5C3.96957 12 3.46086 11.7893 3.08579 11.4142C2.71071 11.0392 2.5 10.5305 2.5 10V4.66669C2.5 4.13625 2.71071 3.62755 3.08579 3.25247C3.46086 2.8774 3.96957 2.66669 4.5 2.66669H12.5Z" stroke="#E0E0E0" stroke-width="1.5" stroke-linecap="round" stroke-linejoin="round"/>
</svg>
