<svg width="19" height="18" viewBox="0 0 19 18" fill="none" xmlns="http://www.w3.org/2000/svg">
<path fill-rule="evenodd" clip-rule="evenodd" d="M3.00051 2.5437C2.44803 2.54342 2 2.99122 2 3.5437L2.00001 4.92999H15.7895V3.54458C15.7895 2.99263 15.3423 2.54506 14.7904 2.54458L3.00051 2.5437ZM15.7895 6.92999V8.12297C15.7895 8.67526 16.2372 9.12297 16.7895 9.12297C17.3418 9.12297 17.7895 8.67526 17.7895 8.12297V3.54458C17.7895 1.88874 16.4479 0.546019 14.7921 0.544577L3.00154 0.543702C1.34408 0.542849 -7.94725e-06 1.88625 0 3.54372L2.09809e-05 11.8248C4.58559e-05 13.4816 1.34318 14.8247 3.00002 14.8247H8.89475C9.44703 14.8247 9.89475 14.377 9.89475 13.8247C9.89475 13.2724 9.44703 12.8247 8.89475 12.8247H3.00002C2.44774 12.8247 2.00003 12.377 2.00002 11.8247L2.00001 6.92999H15.7895ZM3.51317 10.316C3.51317 9.76367 3.96089 9.31596 4.51317 9.31596H4.51756C5.06984 9.31596 5.51756 9.76367 5.51756 10.316C5.51756 10.8682 5.06984 11.316 4.51756 11.316H4.51317C3.96089 11.316 3.51317 10.8682 3.51317 10.316ZM7.01755 10.316C7.01755 9.76367 7.46527 9.31596 8.01755 9.31596H9.77194C10.3242 9.31596 10.7719 9.76367 10.7719 10.316C10.7719 10.8682 10.3242 11.316 9.77194 11.316H8.01755C7.46527 11.316 7.01755 10.8682 7.01755 10.316ZM14.328 10.486C14.7185 10.0955 15.3517 10.0955 15.7422 10.486L18.3738 13.1176C18.5613 13.3052 18.6667 13.5595 18.6667 13.8247C18.6667 14.0899 18.5613 14.3443 18.3738 14.5318L15.7422 17.1634C15.3517 17.5539 14.7185 17.5539 14.328 17.1634C13.9375 16.7729 13.9375 16.1397 14.328 15.7492L15.2525 14.8247H12.4035C11.8512 14.8247 11.4035 14.377 11.4035 13.8247C11.4035 13.2724 11.8512 12.8247 12.4035 12.8247H15.2525L14.328 11.9003C13.9375 11.5097 13.9375 10.8766 14.328 10.486Z" fill="#A5AAB0"/>
</svg>
