<svg width="20" height="18" viewBox="0 0 20 18" fill="none" xmlns="http://www.w3.org/2000/svg">
<path fill-rule="evenodd" clip-rule="evenodd" d="M3.66714 2.5437C3.11465 2.54342 2.66662 2.99122 2.66663 3.5437L2.66663 4.92999H16.4561V3.54458C16.4561 2.99263 16.0089 2.54506 15.457 2.54458L3.66714 2.5437ZM16.4561 6.92999V8.12297C16.4561 8.67526 16.9038 9.12297 17.4561 9.12297C18.0084 9.12297 18.4561 8.67526 18.4561 8.12297V3.54458C18.4561 1.88874 17.1146 0.546019 15.4587 0.544577L3.66817 0.543702C2.01071 0.542849 0.666618 1.88625 0.666626 3.54372L0.666647 11.8248C0.666672 13.4816 2.00981 14.8247 3.66665 14.8247H9.56137C10.1137 14.8247 10.5614 14.377 10.5614 13.8247C10.5614 13.2724 10.1137 12.8247 9.56137 12.8247H3.66665C3.11437 12.8247 2.66666 12.377 2.66665 11.8247L2.66664 6.92999H16.4561ZM4.1798 10.316C4.1798 9.76367 4.62751 9.31596 5.1798 9.31596H5.18419C5.73647 9.31596 6.18418 9.76367 6.18418 10.316C6.18418 10.8682 5.73647 11.316 5.18419 11.316H5.1798C4.62751 11.316 4.1798 10.8682 4.1798 10.316ZM7.68418 10.316C7.68418 9.76367 8.1319 9.31596 8.68418 9.31596H10.4386C10.9909 9.31596 11.4386 9.76367 11.4386 10.316C11.4386 10.8682 10.9909 11.316 10.4386 11.316H8.68418C8.1319 11.316 7.68418 10.8682 7.68418 10.316ZM16.4088 10.486C16.0183 10.0955 15.3851 10.0955 14.9946 10.486L12.363 13.1176C12.1755 13.3052 12.0701 13.5595 12.0701 13.8247C12.0701 14.0899 12.1755 14.3443 12.363 14.5318L14.9946 17.1634C15.3851 17.5539 16.0183 17.5539 16.4088 17.1634C16.7994 16.7729 16.7994 16.1397 16.4088 15.7492L15.4844 14.8247H18.3333C18.8856 14.8247 19.3333 14.377 19.3333 13.8247C19.3333 13.2724 18.8856 12.8247 18.3333 12.8247H15.4844L16.4088 11.9003C16.7994 11.5097 16.7994 10.8766 16.4088 10.486Z" fill="#A5AAB0"/>
</svg>
